<svg width="32" height="32" viewBox="0 0 32 32" xmlns="http://www.w3.org/2000/svg">
  <!-- Chatput · Windows 托盘图标母版。 -->
  <!-- 设计完全沿用 macOS chatput-menubar.svg：聊天气泡 + 键盘按键，单色模板图标。 -->
  <!-- Windows 版只把 macOS 的 viewBox="3.5 3.5 29 29" 等比映射到 32×32，减少托盘留白。 -->
  <g fill="currentColor" transform="translate(-3.8620689655 -3.8620689655) scale(1.1034482759)">
    <path d="M9 5 H27 A4 4 0 0 1 31 9 V21 A4 4 0 0 1 27 25 H19 L13 31 V25 H9 A4 4 0 0 1 5 21 V9 A4 4 0 0 1 9 5 Z
             M9 7.5 A1.5 1.5 0 0 0 7.5 9 V21 A1.5 1.5 0 0 0 9 22.5 H15.5 V26.5 L19.4 22.5 H27 A1.5 1.5 0 0 0 28.5 21 V9 A1.5 1.5 0 0 0 27 7.5 Z"
          fill-rule="evenodd"/>
    <circle cx="12" cy="12" r="1.05"/>
    <circle cx="16" cy="12" r="1.05"/>
    <circle cx="20" cy="12" r="1.05"/>
    <circle cx="24" cy="12" r="1.05"/>
    <circle cx="12" cy="15" r="1.05"/>
    <circle cx="16" cy="15" r="1.05"/>
    <circle cx="20" cy="15" r="1.05"/>
    <circle cx="24" cy="15" r="1.05"/>
    <rect x="13" y="17.8" width="10" height="1.9" rx="0.95"/>
  </g>
</svg>
